# xmcd
#
# Track frame offsets:
#       180
#       16047
#       35001
#       50184
#       64243
#       84089
#       106927
#       128038
#       139178
#       156920
#       172186
#       188200
#       209995
#       225867
#       240761
#       256625
#       271298
#       285073
#
# Disc length: 4001 seconds
#
# Revision: 5
# Processed by: cddbd v1.5.2PL0 Copyright (c) Steve Scherf et al.
# Submitted via: FreeDbEdit v0.1
#
DISCID=ee0f9f12
DTITLE=Various Artist - The Sound of Nature - Sea Wave, Volume 1
DYEAR=1900
DGENRE=Nature
TTITLE0=Love Is Blue
TTITLE1=Memory
TTITLE2=Say You, Say Me
TTITLE3=Smoke Gets in Your Eyes
TTITLE4=Endless Love
TTITLE5=You Are My Everything
TTITLE6=Casablanca
TTITLE7=Romeo and Juliet
TTITLE8=Will You Still Love Me Tomorrow
TTITLE9=Moon River
TTITLE10=Every Breath You Take
TTITLE11=Saving All My Love for You
TTITLE12=The Tennessee Waltz
TTITLE13=Tonight I Celebrate My Love for You
TTITLE14=El Condor Pasa
TTITLE15=500 Miles
TTITLE16=Music Box Dancer
TTITLE17=The House of the Rising Sun
EXTD=
EXTT0=
EXTT1=
EXTT2=
EXTT3=
EXTT4=
EXTT5=
EXTT6=
EXTT7=
EXTT8=
EXTT9=
EXTT10=
EXTT11=
EXTT12=
EXTT13=
EXTT14=
EXTT15=
EXTT16=
EXTT17=
PLAYORDER=
